# xmcd
#
# Track frame offsets:
#	150
#	17542
#	31345
#	50612
#	63642
#	79050
#	94115
#	109235
#	124495
#	138777
#	154035
#	170702
#	187897
#	201552
#	217350
#	230980
#	248355
#	267180
#	284067
#	300362
#	315722
#
# Disc length: 4404 seconds
# Revision: 3
# Processed by: cddbd v1.5.2PL0 Copyright (c) Steve Scherf et al.
# Submitted via: dBpowerAMP V12.0
#
DISCID=39113215
DTITLE=Various Artist - CBS Records Limited Edition Radio Sampler
DYEAR=1988
DGENRE=Country
TTITLE0=Willie Nelson and Ray Charles - Seven Spanish Angels
TTITLE1=Willie Nelson, Johnny Cash, Kris Kristofferson and Waylon Jennings - The Highwayman
TTITLE2=T. G. Sheppard - One For The Money
TTITLE3=George Jones - The Bird
TTITLE4=Tammy Wynette - Talkin' To Myself Again
TTITLE5=Rodney Crowell and Rosanne Cash - It's Such A Small World
TTITLE6=Ricky Van Shelton - Somebody Lied
TTITLE7=Ricky Van Shelton - Life Turned Her That Way
TTITLE8=Rosanne Cash - Tennessee Flat Top Box
TTITLE9=Rosanne Cash - If You Change Your Mind
TTITLE10=The Shooters - I Taught Her Everything She Knows
TTITLE11=The Goldens - Put Us Together Again
TTITLE12=Darden Smith - Little Maggie
TTITLE13=Libby Hurley - You Just Watch Me
TTITLE14=Ricky Skaggs - (Angel On My Mind) That's Why I'm Walkin'
TTITLE15=Exile - Feel Like Foolin' Around
TTITLE16=Exile - I Can't Get Close Enough
TTITLE17=Shenandoah - Stop The Rain
TTITLE18=Vern Gosdin - Do You Believe Me Now
TTITLE19=Merle Haggard - Twinkle, Twinkle Lucky Star
TTITLE20=The O'Kanes - Just Lovin' You
EXTD=
EXTT0=
EXTT1=
EXTT2=
EXTT3=
EXTT4=
EXTT5=
EXTT6=
EXTT7=
EXTT8=
EXTT9=
EXTT10=
EXTT11=
EXTT12=
EXTT13=
EXTT14=
EXTT15=
EXTT16=
EXTT17=
EXTT18=
EXTT19=
EXTT20=
PLAYORDER=
